HIERARCHY
ROOT pelvis
{
  OFFSET 0 100 0
  CHANNELS 6 Xposition Yposition Zposition Zrotation Xrotation Yrotation
  JOINT pelvis_right_femur
  {
    OFFSET -10.78128 -3.44521 -0.5502486
    CHANNELS 3 Zrotation Xrotation Yrotation
    JOINT right_femur_tibia
    {
      OFFSET -0.8047443 -44.0398 -0.1307829
      CHANNELS 3 Zrotation Xrotation Yrotation
      JOINT right_tibia_foot
      {
        OFFSET 3.006224 -47.83518 -5
        CHANNELS 3 Zrotation Xrotation Yrotation
        End Site
        {
          OFFSET 0 -5 15
        }
      }
    }
  }
  JOINT pelvis_left_femur
  {
    OFFSET 10.78128 -3.44521 -0.5502486
    CHANNELS 3 Zrotation Xrotation Yrotation
    JOINT left_femur_tibia
    {
      OFFSET 0.8047443 -44.0398 -0.1307829
      CHANNELS 3 Zrotation Xrotation Yrotation
      JOINT left_tibia_foot
      {
        OFFSET -4.370144 -48.10324 -4.275266
        CHANNELS 3 Zrotation Xrotation Yrotation
        End Site
        {
          OFFSET 0 -5 15
        }
      }
    }
  }
  JOINT pelvis_spine1
  {
    OFFSET 0 6.468898 -3.129235
    CHANNELS 3 Zrotation Xrotation Yrotation
    JOINT spine1
    {
      OFFSET 0 23.15396 4.99043
      CHANNELS 3 Zrotation Xrotation Yrotation
      JOINT spine2
      {
        OFFSET 0 20.79997 -5.064912
        CHANNELS 3 Zrotation Xrotation Yrotation
        JOINT neck
        {
          OFFSET 0 14.38658 9.616178
          CHANNELS 3 Zrotation Xrotation Yrotation
          End Site
          {
            OFFSET 0 20 0
          }
        }
      }
      JOINT right_manubrium
      {
        OFFSET -5.722621 16.35077 3.967754
        CHANNELS 3 Zrotation Xrotation Yrotation
        JOINT right_clavicle
        {
          OFFSET -13.16364 1.694482 -4.693211
          CHANNELS 3 Zrotation Xrotation Yrotation
          JOINT right_humerus
          {
            OFFSET -28.5034 -0.3100689 -2.792744
            CHANNELS 3 Zrotation Xrotation Yrotation
            JOINT right_radius
            {
              OFFSET -25.15693 0.02248979 -1.271978
              CHANNELS 3 Zrotation Xrotation Yrotation
              End Site
              {
                OFFSET -15 0 0
              }
            }
          }
        }
      }
      JOINT left_manubrium
      {
        OFFSET 5.722621 16.35077 3.967754
        CHANNELS 3 Zrotation Xrotation Yrotation
        JOINT left_clavicle
        {
          OFFSET 13.16364 1.694482 -4.693211
          CHANNELS 3 Zrotation Xrotation Yrotation
          JOINT left_humerus
          {
            OFFSET 29.39168 -1.063119 -2.237045
            CHANNELS 3 Zrotation Xrotation Yrotation
            JOINT left_radius
            {
              OFFSET 24.59957 -0.9528479 0.9047498
              CHANNELS 3 Zrotation Xrotation Yrotation
              End Site
              {
                OFFSET 15 -0 -0
              }
            }
          }
        }
      }
    }
  }
}
MOTION
Frames: 15
Frame Time: 0.0416666666667
-445.4597 103.4196 3046.152 -3.238947 -8.13698 -24.29342 5.734039 1.509825 3.299436 -0 12.29247 -0 -6.611938 -6.38238 -4.497692 -1.503184 -8.917456 -5.463416 -0 56.13453 -0 -4.0447 -5.224509 17.09215 1.916531 -3.313483 8.889124 -0.764535 16.1133 -3.847321 2.236316 19.83115 0.5404573 -2.710177 -20.43062 5.613036 -6.436769 -31.88604 11.02357 93.73797 18.04052 -9.284657 -0 0 26.7622 -23.14115 16.14397 18.92642 -2.57391 -18.47434 -9.026751 -97.25841 15.92399 44.2422 0 0 -14.32613 -5.894462 5.746032 24.18614
-447.688 103.6687 3051.212 -3.042941 -8.103897 -24.98667 5.377037 6.028191 3.010606 -0 10.52225 -0 -6.313656 -8.404128 -3.652093 -0.4240245 -14.7754 -4.584488 -0 49.06636 -0 -3.786598 -5.567627 17.91943 1.908591 -3.301835 8.89387 -0.7872204 16.07595 -3.769945 2.236296 19.89076 0.5839419 -2.698882 -20.49247 5.658641 -6.463636 -31.84822 10.99436 93.72363 17.93553 -9.263599 -0 0 26.74929 -23.23479 16.08305 18.97579 -2.567548 -18.34306 -9.022354 -97.53055 16.04941 44.43274 0 0 -13.97061 -6.026479 5.570742 24.37471
-449.8179 103.3365 3056.277 -3.12203 -7.614669 -25.61813 5.42106 9.598933 2.703216 -0 9.582137 -0 -6.021236 -10.72746 -2.833914 1.100728 -19.11693 -3.533764 -0 39.12025 -0 -3.429969 -5.6578 18.47919 1.896359 -3.279657 8.882865 -0.803455 16.02147 -3.705522 2.234093 19.95778 0.6440621 -2.680059 -20.57469 5.715949 -6.502153 -31.78203 10.95872 93.7424 17.8428 -9.291778 -0 0 26.6687 -23.29787 15.98221 18.98349 -2.548639 -18.23033 -9.014426 -97.745 16.2001 44.52424 0 0 -13.70714 -6.124534 5.400628 24.51667
-451.8905 102.549 3061.497 -3.373317 -6.810225 -26.26341 5.596251 12.36 2.547107 -0 9.677317 -0 -5.620288 -13.06666 -2.163003 2.584531 -21.94252 -2.632791 -0 28.92573 -0 -2.983633 -5.387206 18.81321 1.880909 -3.249704 8.85874 -0.8132021 15.9555 -3.656181 2.230178 20.02709 0.7149215 -2.655773 -20.6693 5.780049 -6.547713 -31.69541 10.91959 93.78767 17.76576 -9.359996 -0 0 26.53542 -23.33088 15.85368 18.9549 -2.519746 -18.14032 -9.00368 -97.89654 16.36483 44.52416 0 0 -13.53761 -6.187173 5.24555 24.60975
-453.9501 101.5076 3067.001 -3.541706 -5.991822 -26.95141 5.456213 14.71441 2.572007 -0 10.79533 -0 -5.008406 -14.72705 -1.662469 3.36764 -23.52089 -2.296764 -0 20.80269 -0 -2.62204 -5.061472 18.99544 1.863353 -3.21478 8.824128 -0.8166298 15.8834 -3.623188 2.225016 20.09434 0.7911583 -2.628069 -20.76902 5.846563 -6.596207 -31.59557 10.87969 93.85342 17.70662 -9.459858 -0 0 26.36317 -23.33534 15.70899 18.89614 -2.483685 -18.07593 -8.991371 -97.98292 16.53352 44.44206 0 0 -13.46163 -6.215005 5.112854 24.65485
-456.0403 100.4387 3072.883 -3.420417 -5.465939 -27.64296 4.709375 16.9364 2.647358 -0 13.02312 -0 -4.224953 -14.90664 -1.268504 3.022574 -24.08775 -2.755487 -0 15.95818 -0 -2.528963 -5.079483 19.07428 1.844687 -3.177302 8.781029 -0.8137709 15.80964 -3.607726 2.21898 20.15604 0.8684852 -2.598695 -20.86797 5.911963 -6.644462 -31.48803 10.84128 93.93559 17.6672 -9.585693 -0 0 26.16181 -23.31223 15.55741 18.81208 -2.442977 -18.04 -8.979045 -98.0017 16.69785 44.28506 0 0 -13.48116 -6.208717 5.008272 24.65323
-458.2002 99.56881 3079.182 -2.978693 -5.399452 -28.23184 3.389817 18.90729 2.601176 -0 16.65057 -0 -3.462422 -13.06007 -0.9163478 1.571036 -23.69936 -3.919675 -0 14.38742 -0 -2.720816 -5.642003 19.07118 1.825809 -3.139326 8.730849 -0.8044852 15.73796 -3.611145 2.212347 20.20923 0.9435005 -2.569054 -20.96143 5.973348 -6.690024 -31.37697 10.80634 94.03171 17.64915 -9.734097 -0 0 25.93802 -23.26186 15.40628 18.70626 -2.399678 -18.03567 -8.968326 -97.94947 16.85057 44.05728 0 0 -13.6007 -6.168288 4.93697 24.60527
-460.4553 99.10426 3085.857 -2.359122 -5.775661 -28.57508 1.814975 20.12502 2.338173 -0 22.02172 -0 -2.976232 -9.126569 -0.604188 -0.5672919 -22.28105 -5.440767 -0 15.26232 -0 -2.997416 -6.667456 19.01434 1.80766 -3.102826 8.675018 -0.7887202 15.67192 -3.634494 2.205371 20.25122 1.013097 -2.54036 -21.04514 6.027957 -6.730714 -31.26637 10.7767 94.13941 17.65357 -9.901703 -0 0 25.69817 -23.18505 15.26234 18.58226 -2.355576 -18.06574 -8.960697 -97.82403 16.98417 43.76345 0 0 -13.82316 -6.093722 4.903823 24.51131
-462.7996 99.1972 3092.765 -1.796398 -6.437524 -28.55333 0.4226411 19.8926 1.883875 -0 29.21753 -0 -2.955161 -3.618086 -0.3918407 -2.781119 -19.76164 -6.878351 -0 17.38083 -0 -3.026949 -7.881299 18.96014 1.791342 -3.06992 8.61578 -0.7669031 15.61531 -3.677633 2.198354 20.27949 1.073942 -2.513838 -21.11481 6.072831 -6.764378 -31.16115 10.75422 94.25477 17.6803 -10.08255 -0 0 25.45158 -23.0848 15.13273 18.4454 -2.312547 -18.13111 -8.957239 -97.628 17.09018 43.41395 0 0 -14.1438 -5.98671 4.912644 24.37359
-465.1772 99.89242 3099.677 -1.511743 -7.164968 -28.13118 -0.4263154 17.59844 1.378692 -0 37.65789 -0 -3.414255 2.395192 -0.3772022 -4.516193 -16.19312 -7.894679 -0 19.49089 -0 -2.526395 -8.989962 18.95546 1.778114 -3.042842 8.556667 -0.7402402 15.57199 -3.738407 2.191687 20.29199 1.122359 -2.490839 -21.16612 6.104868 -6.788966 -31.06766 10.74056 94.37136 17.7275 -10.26649 -0 0 25.21234 -22.9673 15.02523 18.30376 -2.272785 -18.22924 -8.958352 -97.372 17.15965 43.02844 0 0 -14.54544 -5.852185 4.96479 24.19828
-467.4855 101.0763 3106.328 -1.60681 -7.753192 -27.37899 -0.606619 13.04772 1.007819 -0 45.81392 -0 -4.162951 7.496335 -0.6745075 -5.480645 -11.81282 -8.391842 -0 20.56596 -0 -1.480694 -9.875473 18.95224 1.769213 -3.023651 8.502338 -0.7107452 15.54539 -3.812388 2.18583 20.28751 1.154707 -2.472803 -21.19531 6.121291 -6.802857 -30.99317 10.73694 94.48048 17.79155 -10.43951 -0 0 24.99863 -22.84179 14.94742 18.16772 -2.238763 -18.35339 -8.963601 -97.07526 17.18489 42.6358 0 0 -14.99767 -5.69885 5.057902 23.99616
-469.619 102.4705 3112.513 -1.993978 -8.070266 -26.43925 -0.2685809 6.693855 0.8381902 -0 51.40854 -0 -4.901444 10.45217 -1.341155 -5.72257 -7.026805 -8.500855 -0 20.10433 -0 -0.2424582 -10.7128 18.7781 1.765555 -3.013783 8.457729 -0.6809244 15.5377 -3.893453 2.181239 20.26621 1.168138 -2.461058 -21.20001 6.120347 -6.805228 -30.94445 10.74373 94.57265 17.86755 -10.58621 -0 0 24.82945 -22.71894 14.90525 18.04822 -2.212898 -18.49327 -8.971796 -96.76288 17.16182 42.26951 0 0 -15.46142 -5.538231 5.185507 23.78161
-471.5376 103.7064 3118.17 -2.427881 -8.076113 -25.46178 0.2532189 -0.4739602 0.6860461 -0 52.35425 -0 -5.418487 10.8609 -2.252379 -5.539715 -2.297399 -8.42414 -0 18.31167 -0 0.6584611 -11.86768 18.24994 1.767444 -3.013646 8.426785 -0.6531997 15.54916 -3.975087 2.178252 20.22971 1.161424 -2.456512 -21.18006 6.101941 -6.796327 -30.92591 10.76027 94.64004 17.95037 -10.69366 -0 0 24.71974 -22.60833 14.90134 17.95417 -2.197031 -18.63719 -8.981336 -96.46024 17.09172 41.95975 0 0 -15.89783 -5.382405 5.337846 23.56995
-473.3017 104.4574 3123.413 -2.649883 -7.806683 -24.5569 0.6079065 -7.389037 0.2168635 -0 47.95905 -0 -5.686525 9.344936 -3.11226 -5.282038 2.026519 -8.280477 -0 15.9405 -0 0.8870184 -13.58682 17.33413 1.774446 -3.022445 8.41138 -0.6293263 15.57784 -4.051856 2.17699 20.18095 1.135477 -2.459384 -21.13771 6.067851 -6.777541 -30.9382 10.78493 94.67863 18.03573 -10.75497 -0 0 24.6761 -22.51614 14.93407 17.89023 -2.19198 -18.77464 -8.990682 -96.18703 16.98139 41.7258 0 0 -16.27784 -5.241376 5.50366 23.37422
-475.0394 104.5483 3128.462 -2.53784 -7.343566 -23.78568 0.6089636 -13.33736 -0.7566261 -0 39.3791 -0 -5.758805 7.044335 -3.677296 -5.176761 5.812368 -8.088404 -0 13.85133 -0 0.5059026 -15.76245 16.1891 1.785519 -3.038378 8.411058 -0.6101231 15.61996 -4.120258 2.177336 20.12367 1.093171 -2.469165 -21.07727 6.021368 -6.75119 -30.9781 10.81544 94.68896 18.12084 -10.77044 -0 0 24.69561 -22.44433 14.99777 17.85627 -2.197471 -18.89814 -8.99871 -95.95413 16.84159 41.57313 0 0 -16.58703 -5.121567 5.672036 23.20326
